<svg width="73" height="97" viewBox="0 0 73 97" fill="none" xmlns="http://www.w3.org/2000/svg">
<path d="M68.1325 24.2014V11.8516C68.1289 8.70924 66.9135 5.69692 64.7521 3.47498C62.5906 1.25304 59.6602 0.00367939 56.6034 0H16.3471C13.2913 0.00532312 10.3629 1.25628 8.20302 3.4777C6.04313 5.69964 4.82829 8.71088 4.82524 11.8516V24.2296C3.38823 24.9109 2.17087 25.9995 1.31582 27.3686C0.460879 28.7372 0.00414931 30.3284 0 31.9551V45.9667C0.00103561 46.9595 0.385794 47.9117 1.06881 48.614C1.75235 49.3155 2.67883 49.7105 3.6451 49.7111H7.87687V52.0922C7.87687 53.1456 8.70748 54 9.73228 54C10.7576 54 11.5882 53.1456 11.5882 52.0922V49.7111H61.4144V52.0922C61.4144 53.1456 62.245 54 63.2704 54C64.2952 54 65.1263 53.1456 65.1263 52.0922V49.7111H69.3581C70.3238 49.7095 71.2493 49.3145 71.9317 48.6129C72.6147 47.9108 72.999 46.9595 73 45.9667V31.9551C72.9964 30.3193 72.536 28.7186 71.6728 27.3441C70.81 25.9697 69.5809 24.8789 68.1325 24.2014ZM8.53749 11.8516C8.53956 9.7223 9.36292 7.68092 10.8269 6.17442C12.2908 4.66791 14.2763 3.82002 16.3476 3.81566H56.6039C58.6763 3.81779 60.6637 4.66524 62.1293 6.17169C63.5948 7.6782 64.4191 9.72121 64.4212 11.8516V23.4077L58.4645 23.4082V18.0659C58.4634 16.3087 57.784 14.6239 56.5754 13.381C55.3668 12.138 53.7279 11.4391 52.0185 11.4369H44.7409C43.031 11.439 41.392 12.1379 40.1828 13.381C38.9742 14.6234 38.2943 16.3087 38.2922 18.0659V23.4077L34.6865 23.4082V18.0659C34.6844 16.3086 34.0045 14.6234 32.7959 13.3809C31.5867 12.138 29.9478 11.439 28.2379 11.4369H20.9576C19.2508 11.4427 17.6155 12.1438 16.4094 13.3863C15.2039 14.6287 14.5255 16.3114 14.5239 18.0659V23.4077L8.53775 23.4082L8.53749 11.8516ZM54.7606 23.4077L42.0042 23.4082V18.0659C42.0047 17.3201 42.2931 16.6046 42.8063 16.0777C43.3195 15.5501 44.0154 15.2531 44.741 15.2526H52.0186C52.7441 15.2531 53.4395 15.5501 53.9522 16.0777C54.4648 16.6052 54.7528 17.3201 54.7528 18.0659L54.7606 23.4077ZM30.9822 23.4077L18.2233 23.4082V18.0659C18.2238 17.3228 18.5102 16.61 19.0202 16.083C19.5303 15.556 20.2221 15.2574 20.9451 15.2526H28.2254C28.9508 15.2531 29.6469 15.5501 30.16 16.0777C30.6732 16.6047 30.9616 17.3201 30.9621 18.0659L30.9822 23.4077ZM63.3005 45.9024H63.2389L10.0362 45.9583C9.93778 45.9285 9.83628 45.9072 9.73376 45.8949C9.63019 45.9072 9.52714 45.9285 9.4272 45.9583H3.71334V31.9548C3.71437 30.7001 4.19959 29.4977 5.06286 28.6108C5.92557 27.7234 7.09536 27.2246 8.3159 27.2235H64.6869C65.9075 27.2246 67.0772 27.7234 67.94 28.6108C68.8032 29.4976 69.2884 30.7001 69.2895 31.9548L69.3589 45.8942L63.3005 45.9024Z" fill="#757575"/>
<path d="M24.6443 83.0059H27.6179C28.9076 83.0059 29.8806 83.1927 30.5369 83.5664C31.1931 83.9401 31.5212 84.585 31.5212 85.501C31.5212 85.8838 31.4529 86.2301 31.3162 86.54C31.184 86.8454 30.9903 87.0983 30.7351 87.2988C30.4799 87.4948 30.1655 87.627 29.7918 87.6953V87.7637C30.1791 87.832 30.5232 87.9528 30.824 88.126C31.1293 88.2992 31.3686 88.5475 31.5418 88.8711C31.7195 89.1947 31.8084 89.6139 31.8084 90.1289C31.8084 90.7396 31.6625 91.2591 31.3709 91.6875C31.0837 92.1159 30.6713 92.4417 30.1336 92.665C29.6004 92.8883 28.9669 93 28.2332 93H24.6443V83.0059ZM26.2849 87.1279H27.8572C28.6 87.1279 29.115 87.0072 29.4021 86.7656C29.6892 86.5241 29.8328 86.1709 29.8328 85.7061C29.8328 85.2321 29.6619 84.8903 29.3201 84.6807C28.9828 84.471 28.4451 84.3662 27.7068 84.3662H26.2849V87.1279ZM26.2849 88.4541V91.626H28.0144C28.78 91.626 29.3178 91.4779 29.6277 91.1816C29.9376 90.8854 30.0925 90.4844 30.0925 89.9785C30.0925 89.6686 30.0219 89.3997 29.8806 89.1719C29.7439 88.944 29.5183 88.7686 29.2039 88.6455C28.8894 88.5179 28.4656 88.4541 27.9324 88.4541H26.2849ZM39.043 93H33.3828V83.0059H39.043V84.3867H35.0234V87.1006H38.79V88.4746H35.0234V91.6123H39.043V93ZM48.8274 87.9072C48.8274 89.0329 48.6177 89.974 48.1985 90.7305C47.7792 91.4824 47.1708 92.0498 46.3733 92.4326C45.5758 92.8109 44.6142 93 43.4885 93H40.7131V83.0059H43.7893C44.8238 83.0059 45.717 83.1927 46.469 83.5664C47.2209 83.9355 47.802 84.4847 48.2121 85.2139C48.6223 85.9385 48.8274 86.8363 48.8274 87.9072ZM47.1184 87.9551C47.1184 87.1348 46.9885 86.4603 46.7288 85.9316C46.4735 85.403 46.0953 85.0111 45.594 84.7559C45.0972 84.4961 44.4843 84.3662 43.7551 84.3662H42.3538V91.626H43.5159C44.7235 91.626 45.6259 91.3184 46.2229 90.7031C46.8199 90.0879 47.1184 89.1719 47.1184 87.9551Z" fill="#757575"/>
</svg>
