<svg width="56" height="102" viewBox="0 0 56 102" fill="none" xmlns="http://www.w3.org/2000/svg">
<path d="M7.10534 0.0069707C7.05871 0.0142249 7.01207 0.0204425 6.96647 0.0297705H3.56055H3.42167C2.64287 0.0624143 1.96517 0.804421 2.00139 1.5843C2.03766 2.36362 2.78226 3.03881 3.56056 2.99888H5.78457V63.8614C5.77214 64.6465 6.48305 65.3693 7.2676 65.3693C8.05159 65.3693 8.76257 64.6464 8.75063 63.8614V62.3769H47.3041V63.8614C47.2927 64.6454 48.0036 65.3668 48.7871 65.3668C49.5706 65.3668 50.281 64.6455 50.2701 63.8614V2.99888H52.4947C53.2787 3.0108 54 2.29936 54 1.51439C54 0.729885 53.2787 0.0184951 52.4947 0.029903H49.0654C48.9208 0.000367139 48.7721 -0.00740468 48.625 0.00710327C48.5783 0.0143575 48.5317 0.0205751 48.4861 0.029903H7.54627C7.40171 0.000367139 7.253 -0.00740468 7.10583 0.00710327L7.10534 0.0069707ZM8.75047 2.9989H47.3039V5.968H8.75047V2.9989ZM8.75047 8.93658H47.3039V23.7815H8.75047V8.93658ZM8.75047 26.7502H47.3039V41.5951H8.75047V26.7502ZM25.6634 29.7193C24.8846 29.7519 24.2069 30.4939 24.2431 31.2738C24.2794 32.0531 25.024 32.7283 25.8023 32.6884H30.2507C31.0347 32.7003 31.756 31.9889 31.756 31.2039C31.756 30.4194 31.0347 29.708 30.2507 29.7194H25.8023H25.6634L25.6634 29.7193ZM8.75047 44.5642H47.3039V59.409H8.75047V44.5642ZM25.6634 47.5333C24.8882 47.5711 24.2172 48.311 24.2534 49.0873C24.2897 49.8635 25.027 50.5371 25.8023 50.5024H30.2507C31.0336 50.5127 31.7528 49.8018 31.7528 49.0179C31.7528 48.234 31.0331 47.5229 30.2507 47.5334H25.8023H25.6634L25.6634 47.5333Z" fill="#757575"/>
<path d="M5.87234 89.2568C5.39383 89.2568 4.96544 89.3434 4.58719 89.5166C4.21349 89.6898 3.89676 89.9404 3.63699 90.2686C3.37723 90.5921 3.17898 90.9863 3.04226 91.4512C2.90555 91.9115 2.83719 92.431 2.83719 93.0098C2.83719 93.7845 2.94656 94.4521 3.16531 95.0127C3.38406 95.5687 3.71674 95.9971 4.16336 96.2979C4.60997 96.5941 5.17508 96.7422 5.85867 96.7422C6.2825 96.7422 6.69493 96.7012 7.09598 96.6191C7.49702 96.5371 7.91173 96.4255 8.34012 96.2842V97.6787C7.93452 97.8382 7.52436 97.9544 7.10965 98.0273C6.69493 98.1003 6.21642 98.1367 5.6741 98.1367C4.65327 98.1367 3.80561 97.9248 3.13113 97.501C2.46121 97.0771 1.95991 96.4801 1.62723 95.71C1.2991 94.9398 1.13504 94.0374 1.13504 93.0029C1.13504 92.2464 1.23986 91.5537 1.44949 90.9248C1.65913 90.2959 1.96447 89.7536 2.36551 89.2979C2.76655 88.8376 3.26101 88.4844 3.84891 88.2383C4.44135 87.9876 5.11811 87.8623 5.87918 87.8623C6.38048 87.8623 6.87267 87.9193 7.35574 88.0332C7.84337 88.1426 8.29454 88.2998 8.70926 88.5049L8.13504 89.8584C7.78868 89.6943 7.42638 89.5531 7.04812 89.4346C6.66987 89.3161 6.27794 89.2568 5.87234 89.2568ZM16.19 98L15.2124 95.2246H11.3911L10.4136 98H8.6841L12.4029 87.9648H14.2212L17.9331 98H16.19ZM14.7886 93.8164L13.8384 91.082C13.8019 90.9635 13.7495 90.7972 13.6812 90.583C13.6128 90.3643 13.5445 90.1432 13.4761 89.9199C13.4077 89.6921 13.3508 89.5007 13.3052 89.3457C13.2596 89.5326 13.2027 89.7422 13.1343 89.9746C13.0705 90.2025 13.0067 90.4167 12.9429 90.6172C12.8836 90.8177 12.8381 90.9727 12.8062 91.082L11.8491 93.8164H14.7886ZM18.7625 88.0059H21.7361C23.0258 88.0059 23.9988 88.1927 24.655 88.5664C25.3113 88.9401 25.6394 89.585 25.6394 90.501C25.6394 90.8838 25.5711 91.2301 25.4343 91.54C25.3022 91.8454 25.1085 92.0983 24.8533 92.2988C24.5981 92.4948 24.2836 92.627 23.9099 92.6953V92.7637C24.2973 92.832 24.6414 92.9528 24.9421 93.126C25.2475 93.2992 25.4867 93.5475 25.6599 93.8711C25.8377 94.1947 25.9265 94.6139 25.9265 95.1289C25.9265 95.7396 25.7807 96.2591 25.489 96.6875C25.2019 97.1159 24.7895 97.4417 24.2517 97.665C23.7185 97.8883 23.0851 98 22.3513 98H18.7625V88.0059ZM20.4031 92.1279H21.9754C22.7182 92.1279 23.2332 92.0072 23.5203 91.7656C23.8074 91.5241 23.9509 91.1709 23.9509 90.7061C23.9509 90.2321 23.78 89.8903 23.4382 89.6807C23.101 89.471 22.5632 89.3662 21.825 89.3662H20.4031V92.1279ZM20.4031 93.4541V96.626H22.1326C22.8982 96.626 23.436 96.4779 23.7459 96.1816C24.0558 95.8854 24.2107 95.4844 24.2107 94.9785C24.2107 94.6686 24.1401 94.3997 23.9988 94.1719C23.8621 93.944 23.6365 93.7686 23.322 93.6455C23.0076 93.5179 22.5837 93.4541 22.0505 93.4541H20.4031ZM27.501 98V88.0059H29.1416V98H27.501ZM39.6301 98H37.6135L32.719 90.0225H32.6575C32.6757 90.2913 32.6916 90.5762 32.7053 90.877C32.7235 91.1777 32.7372 91.4876 32.7463 91.8066C32.76 92.1257 32.7714 92.4492 32.7805 92.7773V98H31.2903V88.0059H33.2932L38.1809 95.9287H38.2288C38.2196 95.6963 38.2082 95.4297 38.1946 95.1289C38.1809 94.8281 38.1672 94.5182 38.1536 94.1992C38.1444 93.8757 38.1376 93.5635 38.133 93.2627V88.0059H39.6301V98ZM47.4253 98H41.7651V88.0059H47.4253V89.3867H43.4057V92.1006H47.1723V93.4746H43.4057V96.6123H47.4253V98ZM52.5612 98H50.9138V89.4004H47.988V88.0059H55.4802V89.4004H52.5612V98Z" fill="#757575"/>
</svg>
