<svg width="59" height="107" viewBox="0 0 59 107" fill="none" xmlns="http://www.w3.org/2000/svg">
<path d="M54.8785 43.3792H3.84398C3.13941 43.3792 2.56812 42.8079 2.56812 42.1033V34.4481C2.56812 33.7436 3.13941 33.1723 3.84398 33.1723H54.8785C55.2168 33.1723 55.5415 33.3067 55.7807 33.5459C56.0199 33.7851 56.1543 34.1098 56.1543 34.4481V42.1033C56.1543 42.4416 56.0199 42.7663 55.7807 43.0055C55.5415 43.2447 55.2168 43.3792 54.8785 43.3792ZM5.11984 40.8274H53.6026V35.724H5.11984V40.8274Z" fill="#757575"/>
<path d="M8.94753 73.9999H1.29236C0.915301 74.005 0.555887 73.8427 0.309828 73.5573C0.0631999 73.272 -0.0438856 72.892 0.0164955 72.5201L5.11995 41.8994C5.22076 41.2752 5.76358 40.8195 6.39581 40.8274H14.051C14.428 40.8223 14.7875 40.9846 15.0335 41.27C15.2801 41.5554 15.3872 41.9353 15.3268 42.3072L10.2234 72.9279C10.1226 73.5522 9.57976 74.0079 8.94753 73.9999ZM2.79773 71.4482H7.90118L12.5837 43.3792H7.48022L2.79773 71.4482Z" fill="#757575"/>
<path d="M21.7062 35.724H16.6028C15.8982 35.724 15.3269 35.1527 15.3269 34.4481V14.0343C15.3269 13.3298 15.8982 12.7585 16.6028 12.7585H21.7062C22.0445 12.7585 22.3692 12.8929 22.6084 13.1321C22.8477 13.3714 22.9821 13.696 22.9821 14.0343V34.4481C22.9821 34.7865 22.8477 35.1111 22.6084 35.3504C22.3692 35.5896 22.0445 35.724 21.7062 35.724ZM17.8786 33.1723H20.4304V15.3102H17.8786V33.1723Z" fill="#757575"/>
<path d="M42.12 35.724H37.0166C36.312 35.724 35.7407 35.1527 35.7407 34.4481V14.0343C35.7407 13.3298 36.312 12.7585 37.0166 12.7585H42.12C42.4584 12.7585 42.783 12.8929 43.0223 13.1321C43.2615 13.3714 43.3959 13.696 43.3959 14.0343V34.4481C43.3959 34.7865 43.2615 35.1111 43.0223 35.3504C42.783 35.5896 42.4584 35.724 42.12 35.724ZM38.2924 33.1723H40.8442V15.3102H38.2924V33.1723Z" fill="#757575"/>
<path d="M57.4304 73.9999H49.7752C49.143 74.0079 48.6002 73.5522 48.4993 72.9279L43.3959 42.3072C43.3355 41.9353 43.4426 41.5554 43.6892 41.27C43.9353 40.9847 44.2947 40.8223 44.6718 40.8274H52.3269C52.9592 40.8195 53.502 41.2751 53.6028 41.8994L58.7062 72.5201C58.7666 72.892 58.6595 73.2719 58.4129 73.5573C58.1668 73.8427 57.8074 74.005 57.4304 73.9999ZM50.8598 71.4482H55.9632L51.2425 43.3792H46.1391L50.8598 71.4482Z" fill="#757575"/>
<path d="M47.2233 15.3102H11.4991C10.4842 15.3102 9.51011 14.9069 8.79257 14.1893C8.07502 13.4716 7.67163 12.4975 7.67163 11.4827V3.82751C7.67163 2.81253 8.07489 1.83848 8.79257 1.12094C9.51024 0.403391 10.4843 0 11.4991 0H47.2233C48.2383 0 49.2123 0.40326 49.9299 1.12094C50.6474 1.83861 51.0508 2.81266 51.0508 3.82751V11.4827C51.0508 12.4977 50.6476 13.4717 49.9299 14.1893C49.2122 14.9068 48.2382 15.3102 47.2233 15.3102ZM11.4991 2.55158C10.7946 2.55158 10.2233 3.12287 10.2233 3.82744V11.4826C10.2233 11.8209 10.3577 12.1456 10.5969 12.3848C10.8362 12.6241 11.1608 12.7585 11.4991 12.7585H47.2233C47.5616 12.7585 47.8863 12.6241 48.1255 12.3848C48.3647 12.1456 48.4992 11.8209 48.4992 11.4826V3.82744C48.4992 3.48911 48.3647 3.16445 48.1255 2.92522C47.8863 2.686 47.5616 2.55158 47.2233 2.55158H11.4991Z" fill="#757575"/>
<path d="M14.6128 94.2568C14.1343 94.2568 13.7059 94.3434 13.3277 94.5166C12.954 94.6898 12.6372 94.9404 12.3775 95.2686C12.1177 95.5921 11.9195 95.9863 11.7827 96.4512C11.646 96.9115 11.5777 97.431 11.5777 98.0098C11.5777 98.7845 11.687 99.4521 11.9058 100.013C12.1245 100.569 12.4572 100.997 12.9038 101.298C13.3504 101.594 13.9155 101.742 14.5991 101.742C15.023 101.742 15.4354 101.701 15.8364 101.619C16.2375 101.537 16.6522 101.425 17.0806 101.284V102.679C16.675 102.838 16.2648 102.954 15.8501 103.027C15.4354 103.1 14.9569 103.137 14.4146 103.137C13.3937 103.137 12.5461 102.925 11.8716 102.501C11.2017 102.077 10.7004 101.48 10.3677 100.71C10.0396 99.9398 9.87551 99.0374 9.87551 98.0029C9.87551 97.2464 9.98033 96.5537 10.19 95.9248C10.3996 95.2959 10.7049 94.7536 11.106 94.2979C11.507 93.8376 12.0015 93.4844 12.5894 93.2383C13.1818 92.9876 13.8586 92.8623 14.6196 92.8623C15.121 92.8623 15.6131 92.9193 16.0962 93.0332C16.5838 93.1426 17.035 93.2998 17.4497 93.5049L16.8755 94.8584C16.5292 94.6943 16.1668 94.5531 15.7886 94.4346C15.4103 94.3161 15.0184 94.2568 14.6128 94.2568ZM26.6189 103H24.9851V98.4883H20.3777V103H18.7371V93.0059H20.3777V97.0938H24.9851V93.0059H26.6189V103ZM34.9678 103L33.9902 100.225H30.1689L29.1914 103H27.4619L31.1807 92.9648H32.999L36.7109 103H34.9678ZM33.5664 98.8164L32.6162 96.082C32.5798 95.9635 32.5273 95.7972 32.459 95.583C32.3906 95.3643 32.3223 95.1432 32.2539 94.9199C32.1855 94.6921 32.1286 94.5007 32.083 94.3457C32.0374 94.5326 31.9805 94.7422 31.9121 94.9746C31.8483 95.2025 31.7845 95.4167 31.7207 95.6172C31.6615 95.8177 31.6159 95.9727 31.584 96.082L30.627 98.8164H33.5664ZM37.5403 103V93.0059H39.1809V103H37.5403ZM44.1391 93.0059C45.0005 93.0059 45.7114 93.1107 46.272 93.3203C46.8371 93.5299 47.2563 93.849 47.5298 94.2773C47.8078 94.7057 47.9468 95.2503 47.9468 95.9111C47.9468 96.4033 47.8556 96.8226 47.6733 97.1689C47.491 97.5153 47.2518 97.8024 46.9555 98.0303C46.6593 98.2581 46.3426 98.4404 46.0054 98.5771L48.8423 103H46.9897L44.5766 98.9941H42.9702V103H41.3296V93.0059H44.1391ZM44.0298 94.373H42.9702V97.6406H44.105C44.866 97.6406 45.4175 97.4993 45.7593 97.2168C46.1056 96.9342 46.2788 96.5173 46.2788 95.9658C46.2788 95.387 46.0942 94.9769 45.7251 94.7354C45.3605 94.4938 44.7954 94.373 44.0298 94.373Z" fill="#757575"/>
</svg>
