<svg width="107" height="107" viewBox="0 0 107 107" fill="none" xmlns="http://www.w3.org/2000/svg">
<path d="M86.9987 45.3673C86.9987 44.2731 86.5642 43.2244 85.7911 42.4508C85.0175 41.6772 83.9683 41.2427 82.8746 41.2427H51.6474V33.984C57.1739 31.3208 61.0745 25.0165 61.0745 17.6753C61.0745 7.92978 54.2042 0 45.756 0C37.3071 0 30.4375 7.93034 30.4375 17.6753C30.2867 23.9721 33.4077 29.8984 38.6857 33.3354V41.2424H25.1346C23.8755 41.2359 22.6826 41.8061 21.8975 42.7906C21.1125 43.7747 20.8212 45.0648 21.1081 46.2908C21.3946 47.5169 22.2268 48.5445 23.3672 49.0787V71.8801C23.3672 73.143 24.041 74.3099 25.1347 74.9414C26.2284 75.5729 27.5759 75.5729 28.6696 74.9414C29.7638 74.3099 30.4376 73.143 30.4376 71.8801V49.4912H61.0759V71.8801C61.0759 72.8175 61.4481 73.7165 62.111 74.3794C62.7739 75.0423 63.6734 75.415 64.6108 75.415H81.1084C82.0459 75.415 82.9448 75.0423 83.6083 74.3794C84.2712 73.7164 84.6433 72.8175 84.6433 71.8801V49.0787C85.3464 48.7451 85.9405 48.2199 86.3577 47.563C86.7749 46.906 86.9973 46.1449 87 45.367L86.9987 45.3673ZM32.7938 17.676C32.7938 9.22709 38.6029 2.35752 45.7557 2.35752C52.9086 2.35752 58.7177 9.22778 58.7177 17.676C58.7177 26.1249 52.9086 32.9945 45.7557 32.9945C38.6029 32.9945 32.7938 26.1242 32.7938 17.676ZM41.0426 34.4916C42.5491 35.0591 44.1457 35.3504 45.7559 35.352C46.9516 35.3493 48.1407 35.1827 49.2914 34.8567V41.2435H41.0426V34.4916ZM28.08 71.8823C28.08 72.5328 27.5527 73.0606 26.9017 73.0606C26.2513 73.0606 25.7234 72.5328 25.7234 71.8823V49.4934H28.0801L28.08 71.8823ZM71.6801 49.4934V50.6718C71.6801 51.3228 72.2074 51.8501 72.8584 51.8501C73.5094 51.8501 74.0367 51.3228 74.0367 50.6718V49.4934H82.2855V54.4427H73.5301C73.1379 54.1275 72.5791 54.1275 72.1869 54.4427H63.4314V49.4934H71.6801ZM63.4313 61.2772V56.7994H71.6801V57.7422C71.6801 58.3932 72.2074 58.9206 72.8584 58.9206C73.5094 58.9206 74.0367 58.3932 74.0367 57.7422V56.7994H82.2855V61.2772H63.4313ZM81.1066 73.0614H64.609C63.958 73.0614 63.4307 72.5336 63.4307 71.8831V63.6343H71.6795V64.8126C71.6795 65.4631 72.2068 65.9909 72.8578 65.9909C73.5088 65.9909 74.0361 65.4631 74.0361 64.8126V63.6343H82.2849V71.8831C82.2849 72.1956 82.1607 72.495 81.9399 72.7158C81.7185 72.9372 81.4191 73.0614 81.1066 73.0614V73.0614ZM82.8741 47.1367H25.1333C24.1573 47.1367 23.3658 46.3451 23.3658 45.3691C23.3658 44.3926 24.1573 43.6016 25.1333 43.6016H82.8741C83.8501 43.6016 84.6416 44.3926 84.6416 45.3691C84.6416 46.3451 83.8501 47.1367 82.8741 47.1367Z" fill="#4F4E4E"/>
<path d="M55.1826 53.0266H36.3283C35.3908 53.0266 34.4913 53.3987 33.8284 54.0617C33.1655 54.7246 32.7933 55.6241 32.7933 56.5615V74.2368C32.7933 74.5493 32.9176 74.8487 33.1384 75.0701C33.3592 75.2909 33.6592 75.4151 33.9716 75.4151H57.5396C57.8521 75.4151 58.1521 75.2909 58.3729 75.0701C58.5942 74.8487 58.7179 74.5493 58.7179 74.2368V56.5615C58.7179 55.6241 58.3458 54.7245 57.6828 54.0617C57.0199 53.3987 56.1204 53.0266 55.183 53.0266H55.1826ZM36.3283 55.3832H55.1826C55.4951 55.3832 55.7951 55.5075 56.0159 55.7283C56.2367 55.9491 56.3609 56.2491 56.3609 56.5616V57.7399H35.1498V56.5616C35.1498 55.9106 35.6776 55.3832 36.3281 55.3832H36.3283ZM35.1499 73.0585V60.096H56.3611V73.0585H35.1499Z" fill="#4F4E4E"/>
<path d="M9.46235 97.9072C9.46235 99.0329 9.25271 99.974 8.83344 100.73C8.41417 101.482 7.80577 102.05 7.00824 102.433C6.21072 102.811 5.24913 103 4.12348 103H1.34809V93.0059H4.42426C5.45876 93.0059 6.35199 93.1927 7.10395 93.5664C7.8559 93.9355 8.43695 94.4847 8.84711 95.2139C9.25727 95.9385 9.46235 96.8363 9.46235 97.9072ZM7.75336 97.9551C7.75336 97.1348 7.62348 96.4603 7.36371 95.9316C7.1085 95.403 6.73025 95.0111 6.22895 94.7559C5.7322 94.4961 5.11925 94.3662 4.39008 94.3662H2.98871V101.626H4.15082C5.3585 101.626 6.26085 101.318 6.85785 100.703C7.45486 100.088 7.75336 99.1719 7.75336 97.9551ZM13.9352 93.0059C14.7966 93.0059 15.5075 93.1107 16.068 93.3203C16.6332 93.5299 17.0524 93.849 17.3259 94.2773C17.6039 94.7057 17.7429 95.2503 17.7429 95.9111C17.7429 96.4033 17.6517 96.8226 17.4694 97.1689C17.2871 97.5153 17.0479 97.8024 16.7516 98.0303C16.4554 98.2581 16.1387 98.4404 15.8014 98.5771L18.6384 103H16.7858L14.3727 98.9941H12.7663V103H11.1257V93.0059H13.9352ZM13.8259 94.373H12.7663V97.6406H13.9011C14.6621 97.6406 15.2136 97.4993 15.5554 97.2168C15.9017 96.9342 16.0749 96.5173 16.0749 95.9658C16.0749 95.387 15.8903 94.9769 15.5212 94.7354C15.1566 94.4938 14.5915 94.373 13.8259 94.373ZM25.2372 103H19.5771V93.0059H25.2372V94.3867H21.2177V97.1006H24.9843V98.4746H21.2177V101.612H25.2372V103ZM32.6769 100.279C32.6769 100.872 32.5311 101.382 32.2394 101.811C31.9523 102.239 31.5376 102.567 30.9953 102.795C30.4575 103.023 29.8149 103.137 29.0675 103.137C28.703 103.137 28.3543 103.116 28.0216 103.075C27.689 103.034 27.3745 102.975 27.0783 102.897C26.7866 102.815 26.52 102.717 26.2785 102.604V101.059C26.6841 101.236 27.1375 101.398 27.6388 101.544C28.1401 101.685 28.6505 101.756 29.1701 101.756C29.5939 101.756 29.9448 101.701 30.2228 101.592C30.5054 101.478 30.715 101.318 30.8517 101.113C30.9884 100.904 31.0568 100.66 31.0568 100.382C31.0568 100.086 30.977 99.835 30.8175 99.6299C30.658 99.4248 30.4165 99.238 30.0929 99.0693C29.7739 98.8962 29.3729 98.7116 28.8898 98.5156C28.5617 98.3835 28.2472 98.2331 27.9464 98.0645C27.6502 97.8958 27.3859 97.6976 27.1535 97.4697C26.9211 97.2419 26.7365 96.973 26.5998 96.6631C26.4676 96.3486 26.4015 95.9795 26.4015 95.5557C26.4015 94.9906 26.536 94.5075 26.8048 94.1064C27.0783 93.7054 27.4611 93.3978 27.9533 93.1836C28.45 92.9694 29.0288 92.8623 29.6896 92.8623C30.2137 92.8623 30.7059 92.917 31.1662 93.0264C31.631 93.1357 32.0867 93.2907 32.5334 93.4912L32.0138 94.8105C31.6037 94.6419 31.2049 94.5075 30.8175 94.4072C30.4347 94.307 30.0428 94.2568 29.6418 94.2568C29.2954 94.2568 29.0015 94.3092 28.7599 94.4141C28.5184 94.5189 28.3338 94.667 28.2062 94.8584C28.0832 95.0452 28.0216 95.2686 28.0216 95.5283C28.0216 95.82 28.0923 96.0661 28.2336 96.2666C28.3794 96.4626 28.6027 96.6426 28.9035 96.8066C29.2088 96.9707 29.6007 97.153 30.0793 97.3535C30.6307 97.5814 31.0978 97.8206 31.4806 98.0713C31.868 98.3219 32.1642 98.6227 32.3693 98.9736C32.5744 99.32 32.6769 99.7552 32.6769 100.279ZM39.8842 100.279C39.8842 100.872 39.7383 101.382 39.4467 101.811C39.1596 102.239 38.7449 102.567 38.2025 102.795C37.6648 103.023 37.0222 103.137 36.2748 103.137C35.9102 103.137 35.5616 103.116 35.2289 103.075C34.8962 103.034 34.5818 102.975 34.2855 102.897C33.9939 102.815 33.7273 102.717 33.4857 102.604V101.059C33.8913 101.236 34.3448 101.398 34.8461 101.544C35.3474 101.685 35.8578 101.756 36.3773 101.756C36.8012 101.756 37.1521 101.701 37.4301 101.592C37.7126 101.478 37.9223 101.318 38.059 101.113C38.1957 100.904 38.2641 100.66 38.2641 100.382C38.2641 100.086 38.1843 99.835 38.0248 99.6299C37.8653 99.4248 37.6238 99.238 37.3002 99.0693C36.9812 98.8962 36.5801 98.7116 36.0971 98.5156C35.7689 98.3835 35.4545 98.2331 35.1537 98.0645C34.8575 97.8958 34.5932 97.6976 34.3607 97.4697C34.1283 97.2419 33.9438 96.973 33.807 96.6631C33.6749 96.3486 33.6088 95.9795 33.6088 95.5557C33.6088 94.9906 33.7432 94.5075 34.0121 94.1064C34.2855 93.7054 34.6684 93.3978 35.1605 93.1836C35.6573 92.9694 36.2361 92.8623 36.8969 92.8623C37.421 92.8623 37.9132 92.917 38.3734 93.0264C38.8383 93.1357 39.294 93.2907 39.7406 93.4912L39.2211 94.8105C38.8109 94.6419 38.4122 94.5075 38.0248 94.4072C37.642 94.307 37.2501 94.2568 36.849 94.2568C36.5027 94.2568 36.2087 94.3092 35.9672 94.4141C35.7257 94.5189 35.5411 94.667 35.4135 94.8584C35.2904 95.0452 35.2289 95.2686 35.2289 95.5283C35.2289 95.82 35.2995 96.0661 35.4408 96.2666C35.5867 96.4626 35.81 96.6426 36.1107 96.8066C36.4161 96.9707 36.808 97.153 37.2865 97.3535C37.838 97.5814 38.3051 97.8206 38.6879 98.0713C39.0753 98.3219 39.3715 98.6227 39.5766 98.9736C39.7816 99.32 39.8842 99.7552 39.8842 100.279ZM41.3219 103V93.0059H42.9625V103H41.3219ZM53.4511 103H51.4345L46.5399 95.0225H46.4784C46.4966 95.2913 46.5126 95.5762 46.5263 95.877C46.5445 96.1777 46.5582 96.4876 46.5673 96.8066C46.5809 97.1257 46.5923 97.4492 46.6014 97.7773V103H45.1112V93.0059H47.1141L52.0018 100.929H52.0497C52.0406 100.696 52.0292 100.43 52.0155 100.129C52.0018 99.8281 51.9882 99.5182 51.9745 99.1992C51.9654 98.8757 51.9585 98.5635 51.954 98.2627V93.0059H53.4511V103ZM59.6193 97.5723H63.3517V102.59C62.8276 102.763 62.2853 102.897 61.7247 102.993C61.1642 103.089 60.5353 103.137 59.838 103.137C58.8217 103.137 57.9604 102.936 57.254 102.535C56.5522 102.13 56.019 101.544 55.6544 100.778C55.2898 100.008 55.1075 99.0807 55.1075 97.9961C55.1075 96.9525 55.3103 96.0479 55.7159 95.2822C56.1215 94.512 56.7117 93.9173 57.4864 93.498C58.2612 93.0742 59.2 92.8623 60.3029 92.8623C60.8452 92.8623 61.3693 92.917 61.8751 93.0264C62.3855 93.1312 62.8527 93.277 63.2765 93.4639L62.7023 94.8174C62.365 94.6579 61.9868 94.5234 61.5675 94.4141C61.1482 94.3047 60.713 94.25 60.2618 94.25C59.5463 94.25 58.9288 94.4049 58.4093 94.7148C57.8943 95.0247 57.4978 95.4622 57.2198 96.0273C56.9419 96.5879 56.8029 97.251 56.8029 98.0166C56.8029 98.7594 56.9145 99.4111 57.1378 99.9717C57.3611 100.532 57.7098 100.97 58.1837 101.284C58.6622 101.594 59.2797 101.749 60.0363 101.749C60.4145 101.749 60.7358 101.729 61.0001 101.688C61.2644 101.646 61.5083 101.601 61.7316 101.551V98.9736H59.6193V97.5723ZM71.8668 103H70.2193V94.4004H67.2935V93.0059H74.7857V94.4004H71.8668V103ZM82.0204 103L81.0428 100.225H77.2215L76.244 103H74.5145L78.2332 92.9648H80.0516L83.7635 103H82.0204ZM80.619 98.8164L79.6688 96.082C79.6323 95.9635 79.5799 95.7972 79.5116 95.583C79.4432 95.3643 79.3748 95.1432 79.3065 94.9199C79.2381 94.6921 79.1812 94.5007 79.1356 94.3457C79.09 94.5326 79.0331 94.7422 78.9647 94.9746C78.9009 95.2025 78.8371 95.4167 78.7733 95.6172C78.714 95.8177 78.6685 95.9727 78.6366 96.082L77.6795 98.8164H80.619ZM84.5928 93.0059H87.5665C88.8562 93.0059 89.8292 93.1927 90.4854 93.5664C91.1417 93.9401 91.4698 94.585 91.4698 95.501C91.4698 95.8838 91.4014 96.2301 91.2647 96.54C91.1326 96.8454 90.9389 97.0983 90.6837 97.2988C90.4285 97.4948 90.114 97.627 89.7403 97.6953V97.7637C90.1277 97.832 90.4718 97.9528 90.7725 98.126C91.0779 98.2992 91.3171 98.5475 91.4903 98.8711C91.668 99.1947 91.7569 99.6139 91.7569 100.129C91.7569 100.74 91.6111 101.259 91.3194 101.688C91.0323 102.116 90.6199 102.442 90.0821 102.665C89.5489 102.888 88.9154 103 88.1817 103H84.5928V93.0059ZM86.2335 97.1279H87.8057C88.5486 97.1279 89.0636 97.0072 89.3507 96.7656C89.6378 96.5241 89.7813 96.1709 89.7813 95.7061C89.7813 95.2321 89.6104 94.8903 89.2686 94.6807C88.9314 94.471 88.3936 94.3662 87.6553 94.3662H86.2335V97.1279ZM86.2335 98.4541V101.626H87.963C88.7286 101.626 89.2664 101.478 89.5762 101.182C89.8861 100.885 90.0411 100.484 90.0411 99.9785C90.0411 99.6686 89.9705 99.3997 89.8292 99.1719C89.6925 98.944 89.4669 98.7686 89.1524 98.6455C88.838 98.5179 88.4141 98.4541 87.8809 98.4541H86.2335ZM93.3314 103V93.0059H94.972V101.605H99.2171V103H93.3314ZM106.117 103H100.457V93.0059H106.117V94.3867H102.097V97.1006H105.864V98.4746H102.097V101.612H106.117V103Z" fill="#505050"/>
</svg>
