<svg width="46" height="106" viewBox="0 0 46 106" fill="none" xmlns="http://www.w3.org/2000/svg">
<path d="M44.7981 71.2711H38.4872V69.1098C38.4872 66.5002 36.3719 64.3855 33.7629 64.3855H32.3376C32.5906 63.8568 32.7398 63.2821 32.7398 62.6612C32.7398 60.7068 31.349 59.0863 29.5094 58.7185L32.1302 44.3142C32.6244 41.5898 31.8888 38.8082 30.1186 36.6929C29.2564 35.6583 28.1874 34.8306 27.0036 34.2675V29.1404C27.3486 28.9107 27.7164 28.761 28.3023 28.761C29.1988 28.761 29.601 29.106 30.2107 29.6347C30.9463 30.2671 31.8661 31.06 33.6246 31.06C35.3832 31.06 36.2914 30.2667 37.0269 29.6347C37.625 29.0827 38.0272 28.7377 38.9237 28.7377C39.8202 28.7377 40.2224 29.0827 40.832 29.6114C41.5677 30.2438 42.4758 31.0367 44.2344 31.0367C44.8668 31.0367 45.3838 30.5196 45.3838 29.8872C45.3838 29.784 45.3494 29.6919 45.3261 29.5998C45.3261 29.5771 45.3378 29.5538 45.3378 29.5422L36.9464 3.33349C36.314 1.33353 34.475 0 32.394 0H13.5419C11.45 0 9.62194 1.33364 8.98952 3.32198L0.598138 29.5306C0.586495 29.5767 0.586495 29.6227 0.586495 29.6688C0.574853 29.7376 0.540453 29.8069 0.540453 29.8757C0.540453 30.5081 1.04639 31.0135 1.67827 31.0251H1.68991C3.44845 31.0251 4.35671 30.2318 5.09223 29.5999C5.713 29.0828 6.11574 28.7378 7.02391 28.7378C7.92041 28.7378 8.32261 29.0828 8.93228 29.6115C9.6679 30.244 10.5877 31.0368 12.3462 31.0368C14.1048 31.0368 15.013 30.2435 15.7486 29.6115C16.3577 29.0828 16.7604 28.7378 17.6686 28.7378C18.2433 28.7378 18.6111 28.887 18.9445 29.1056V34.2438C17.7607 34.8069 16.6916 35.6347 15.8296 36.6692C14.0594 38.7955 13.3237 41.5776 13.818 44.2905L16.4387 58.6948C14.5997 59.0626 13.2083 60.6947 13.2083 62.6375C13.2083 63.2583 13.3576 63.833 13.6105 64.3618H12.1853C9.57565 64.3618 7.46094 66.477 7.46094 69.0861L7.46041 71.2712H1.14947C0.517048 71.2712 0 71.7883 0 72.4207C0 73.0531 0.517048 73.5702 1.14947 73.5702H44.808C45.4404 73.5702 45.9575 73.0531 45.9575 72.4207C45.9575 71.7883 45.4288 71.2712 44.7969 71.2712L44.7981 71.2711ZM14.2541 27.8768C13.645 28.3944 13.2428 28.7389 12.3463 28.7389C11.4381 28.7389 11.0359 28.3938 10.4268 27.8652C9.69064 27.2333 8.78247 26.4399 7.02393 26.4399C5.2654 26.4399 4.34549 27.2332 3.60997 27.8652C3.58721 27.8879 3.56392 27.9112 3.52952 27.934L11.1852 4.0244C11.507 3.00141 12.4612 2.30014 13.5419 2.30014H32.394C33.4747 2.30014 34.4289 2.98971 34.7622 4.0244L42.4179 27.934C42.3952 27.9112 42.3719 27.8996 42.3375 27.8763C41.6013 27.2333 40.6815 26.4399 38.923 26.4399C37.1644 26.4399 36.2562 27.2332 35.5206 27.8652C34.911 28.3944 34.5088 28.7389 33.6123 28.7389C32.7041 28.7389 32.3019 28.3938 31.6928 27.8652C30.9566 27.2333 30.0485 26.4399 28.2899 26.4399C26.7727 26.4399 25.8646 27.0379 25.0945 27.6815L24.8759 27.8767C24.2663 28.3943 23.8757 28.7388 22.9792 28.7388C22.0711 28.7388 21.6805 28.3938 21.0708 27.8651L20.8411 27.6698C20.0822 27.0263 19.1857 26.4399 17.6685 26.4399C15.9094 26.4399 14.9896 27.2332 14.254 27.8767L14.2541 27.8768ZM21.2435 30.7161C21.7151 30.9113 22.2782 31.0378 22.9793 31.0378C23.6689 31.0378 24.2209 30.9113 24.6919 30.7277V33.5098C24.1288 33.4061 23.5541 33.3373 22.9677 33.3373C22.3812 33.3373 21.8066 33.4061 21.2434 33.5098L21.2435 30.7161ZM17.5877 38.1537C18.9214 36.5559 20.887 35.6362 22.9678 35.6362C25.0486 35.6362 27.0142 36.5559 28.3479 38.1537C29.6815 39.7514 30.2329 41.8439 29.8651 43.9015L27.1866 58.6269H18.7605L16.0705 43.9015C15.7027 41.8439 16.2547 39.7519 17.5877 38.1542V38.1537ZM15.4958 62.6498C15.4958 61.6957 16.2658 60.9256 17.22 60.9256H28.7158C29.67 60.9256 30.4401 61.6956 30.4401 62.6498C30.4401 63.604 29.6695 64.3741 28.7158 64.3741H17.22C16.2664 64.3741 15.4958 63.6041 15.4958 62.6498ZM9.74844 69.0984C9.74844 67.7648 10.8408 66.6731 12.1738 66.6731H33.7612C35.0949 66.6731 36.1866 67.7654 36.1866 69.0984V71.2714H9.74763L9.74844 69.0984Z" fill="#757575"/>
<path d="M5.59719 102V92.0059H7.23781V100.605H11.4829V102H5.59719ZM18.9158 102L17.9382 99.2246H14.117L13.1394 102H11.4099L15.1287 91.9648H16.947L20.6589 102H18.9158ZM17.5144 97.8164L16.5642 95.082C16.5278 94.9635 16.4754 94.7972 16.407 94.583C16.3386 94.3643 16.2703 94.1432 16.2019 93.9199C16.1336 93.6921 16.0766 93.5007 16.031 93.3457C15.9854 93.5326 15.9285 93.7422 15.8601 93.9746C15.7963 94.2025 15.7325 94.4167 15.6687 94.6172C15.6095 94.8177 15.5639 94.9727 15.532 95.082L14.575 97.8164H17.5144ZM25.8018 102L22.9238 93.6533H22.8623C22.876 93.8402 22.8919 94.0954 22.9102 94.4189C22.9284 94.7425 22.9443 95.0889 22.958 95.458C22.9717 95.8271 22.9785 96.1803 22.9785 96.5176V102H21.4883V92.0059H23.792L26.5605 99.9834H26.6016L29.4658 92.0059H31.7627V102H30.1973V96.4355C30.1973 96.1302 30.2018 95.7998 30.2109 95.4443C30.2246 95.0889 30.2383 94.7516 30.252 94.4326C30.2702 94.1136 30.2839 93.8584 30.293 93.667H30.2383L27.251 102H25.8018ZM36.8098 92.0059C38.0995 92.0059 39.0406 92.2702 39.633 92.7988C40.2255 93.3275 40.5217 94.068 40.5217 95.0205C40.5217 95.4535 40.4534 95.8659 40.3166 96.2578C40.1845 96.6452 39.9657 96.9893 39.6604 97.29C39.3551 97.5863 38.9517 97.821 38.4504 97.9941C37.9537 98.1673 37.3407 98.2539 36.6116 98.2539H35.5452V102H33.9045V92.0059H36.8098ZM36.7004 93.3662H35.5452V96.8867H36.4407C36.9556 96.8867 37.3931 96.8275 37.7532 96.709C38.1132 96.5859 38.3866 96.3923 38.5735 96.1279C38.7603 95.8636 38.8538 95.515 38.8538 95.082C38.8538 94.5033 38.6783 94.0726 38.3274 93.79C37.981 93.5075 37.4387 93.3662 36.7004 93.3662Z" fill="#757575"/>
</svg>
