<svg width="73" height="104" viewBox="0 0 73 104" fill="none" xmlns="http://www.w3.org/2000/svg">
<path d="M63.4731 20.6287V12.0085C63.4692 8.82516 62.203 5.77256 59.9514 3.52167C57.7005 1.27012 54.6479 0.00392113 51.4646 0H20.5857C17.4024 0.00382931 14.3498 1.27002 12.0989 3.52167C9.84732 5.77256 8.58113 8.82516 8.5772 12.0085V20.6287C6.08059 20.8559 3.77725 22.0673 2.1753 23.9952C0.574042 25.9239 -0.193714 28.4109 0.0417172 30.9064C0.277214 33.4023 1.49618 35.7013 3.43055 37.296V53.1804C3.43311 54.8473 3.92133 56.4774 4.83525 57.8712C5.74917 59.2657 7.04988 60.3634 8.57699 61.0303V65.1888C8.57827 66.0983 8.94014 66.9706 9.58345 67.6134C10.2261 68.2567 11.0985 68.6186 12.008 68.6198H15.439C16.3484 68.6186 17.2208 68.2567 17.8636 67.6134C18.5069 66.9707 18.8687 66.0983 18.87 65.1888V61.7578H53.1799V65.1888C53.1812 66.0983 53.5431 66.9706 54.1864 67.6134C54.8291 68.2567 55.7015 68.6186 56.611 68.6198H60.042C60.9514 68.6186 61.8238 68.2567 62.4665 67.6134C63.1098 66.9707 63.4717 66.0983 63.473 65.1888V61.0303C65.0002 60.3634 66.3009 59.2656 67.2147 57.8712C68.1286 56.4773 68.6169 54.8473 68.6194 53.1804V37.296C70.5538 35.7011 71.7728 33.4023 72.0083 30.9064C72.2438 28.4111 71.476 25.9239 69.8747 23.9952C68.2728 22.0672 65.9696 20.8558 63.4728 20.6287H63.4731ZM20.5857 3.43132H51.4646C53.7385 3.43387 55.9187 4.33885 57.5268 5.94656C59.1345 7.55484 60.0395 9.73503 60.0421 12.0088V20.9519C58.0681 21.5135 56.3309 22.7025 55.0928 24.3388C53.8553 25.9752 53.1832 27.9703 53.1801 30.022V40.8433C47.5059 39.9403 41.7709 39.4763 36.0251 39.4565C30.2794 39.4763 24.5444 39.9403 18.8702 40.8433V30.022C18.867 27.9701 18.195 25.975 16.9575 24.3388C15.7194 22.7024 13.9822 21.5135 12.0082 20.9519V12.0088C12.0107 9.73486 12.9157 7.55471 14.5234 5.94656C16.1317 4.33893 18.3119 3.43393 20.5857 3.43132ZM15.4392 65.1891H12.0082V61.7582H15.4392V65.1891ZM60.0421 65.1891H56.6111V61.7582H60.0421V65.1891ZM65.9486 35.0128C65.4738 35.3312 65.1885 35.8654 65.1885 36.4373V53.1805C65.1872 54.545 64.6441 55.8532 63.6798 56.8183C62.7148 57.7826 61.4065 58.3258 60.042 58.327H12.0081C10.6436 58.3258 9.33534 57.7826 8.37025 56.8183C7.40593 55.8534 6.8628 54.545 6.86153 53.1805V36.4373C6.86153 35.8654 6.57625 35.3312 6.10144 35.0128C4.3464 33.841 3.3354 31.8339 3.43882 29.7259C3.54157 27.6187 4.74396 25.7198 6.60497 24.725C8.46604 23.7301 10.7132 23.7856 12.5225 24.8712C14.3324 25.9561 15.4396 27.9115 15.4391 30.0221V42.8876C15.4398 43.4014 15.6702 43.8877 16.0678 44.2138C16.4654 44.5393 16.9874 44.6695 17.4916 44.5693C23.6087 43.471 29.8102 42.9081 36.0255 42.8876C42.2403 42.9081 48.4417 43.471 54.5594 44.5693C55.0635 44.6695 55.5856 44.5393 55.9832 44.2138C56.3808 43.8877 56.6112 43.4014 56.6118 42.8876V30.0221C56.6106 27.9109 57.7178 25.9547 59.5278 24.8686C61.3378 23.783 63.5856 23.7274 65.4471 24.7224C67.3087 25.7174 68.5112 27.6167 68.6139 29.7253C68.7173 31.8332 67.7051 33.841 65.9494 35.0128H65.9486Z" fill="#757575"/>
<path d="M26.0983 97.2793C26.0983 97.8717 25.9524 98.3822 25.6608 98.8105C25.3737 99.2389 24.959 99.5671 24.4166 99.7949C23.8789 100.023 23.2363 100.137 22.4889 100.137C22.1243 100.137 21.7757 100.116 21.443 100.075C21.1103 100.034 20.7959 99.9749 20.4996 99.8975C20.208 99.8154 19.9414 99.7174 19.6998 99.6035V98.0586C20.1054 98.2363 20.5589 98.3981 21.0602 98.5439C21.5615 98.6852 22.0719 98.7559 22.5914 98.7559C23.0153 98.7559 23.3662 98.7012 23.6442 98.5918C23.9267 98.4779 24.1364 98.3184 24.2731 98.1133C24.4098 97.9036 24.4782 97.6598 24.4782 97.3818C24.4782 97.0856 24.3984 96.835 24.2389 96.6299C24.0794 96.4248 23.8379 96.238 23.5143 96.0693C23.1953 95.8962 22.7942 95.7116 22.3112 95.5156C21.983 95.3835 21.6686 95.2331 21.3678 95.0645C21.0716 94.8958 20.8073 94.6976 20.5748 94.4697C20.3424 94.2419 20.1579 93.973 20.0211 93.6631C19.889 93.3486 19.8229 92.9795 19.8229 92.5557C19.8229 91.9906 19.9573 91.5075 20.2262 91.1064C20.4996 90.7054 20.8825 90.3978 21.3746 90.1836C21.8714 89.9694 22.4502 89.8623 23.111 89.8623C23.6351 89.8623 24.1273 89.917 24.5875 90.0264C25.0524 90.1357 25.5081 90.2907 25.9547 90.4912L25.4352 91.8105C25.025 91.6419 24.6263 91.5075 24.2389 91.4072C23.8561 91.307 23.4642 91.2568 23.0631 91.2568C22.7168 91.2568 22.4228 91.3092 22.1813 91.4141C21.9398 91.5189 21.7552 91.667 21.6276 91.8584C21.5045 92.0452 21.443 92.2686 21.443 92.5283C21.443 92.82 21.5136 93.0661 21.6549 93.2666C21.8008 93.4626 22.0241 93.6426 22.3248 93.8066C22.6302 93.9707 23.0221 94.153 23.5006 94.3535C24.0521 94.5814 24.5192 94.8206 24.902 95.0713C25.2894 95.3219 25.5856 95.6227 25.7907 95.9736C25.9957 96.32 26.0983 96.7552 26.0983 97.2793ZM36.4091 94.9893C36.4091 95.7594 36.3111 96.4613 36.1151 97.0947C35.9237 97.7236 35.6343 98.266 35.247 98.7217C34.8596 99.1729 34.3742 99.5215 33.7909 99.7676C33.2076 100.014 32.524 100.137 31.7401 100.137C30.9426 100.137 30.2499 100.014 29.662 99.7676C29.0787 99.5215 28.5933 99.1706 28.2059 98.7148C27.8231 98.2591 27.536 97.7145 27.3446 97.0811C27.1532 96.4476 27.0575 95.7458 27.0575 94.9756C27.0575 93.9456 27.2261 93.0479 27.5634 92.2822C27.9052 91.512 28.4224 90.915 29.1151 90.4912C29.8124 90.0628 30.6919 89.8486 31.7538 89.8486C32.7929 89.8486 33.6565 90.0605 34.3446 90.4844C35.0328 90.9082 35.5477 91.5052 35.8895 92.2754C36.2359 93.041 36.4091 93.9456 36.4091 94.9893ZM28.7802 94.9893C28.7802 95.7594 28.885 96.4271 29.0946 96.9922C29.3042 97.5527 29.6255 97.9857 30.0585 98.291C30.496 98.5918 31.0565 98.7422 31.7401 98.7422C32.4283 98.7422 32.9888 98.5918 33.4218 98.291C33.8547 97.9857 34.1737 97.5527 34.3788 96.9922C34.5839 96.4271 34.6864 95.7594 34.6864 94.9893C34.6864 93.818 34.4517 92.902 33.9823 92.2412C33.5175 91.5758 32.7746 91.2432 31.7538 91.2432C31.0702 91.2432 30.5074 91.3936 30.0653 91.6943C29.6278 91.9951 29.3042 92.4258 29.0946 92.9863C28.885 93.5423 28.7802 94.21 28.7802 94.9893ZM39.6925 100H38.0655V90.0059H43.712V91.3867H39.6925V94.5039H43.4523V95.8779H39.6925V100ZM51.2338 100L50.2562 97.2246H46.4349L45.4574 100H43.7279L47.4466 89.9648H49.265L52.9769 100H51.2338ZM49.8324 95.8164L48.8822 93.082C48.8457 92.9635 48.7933 92.7972 48.725 92.583C48.6566 92.3643 48.5882 92.1432 48.5199 91.9199C48.4515 91.6921 48.3946 91.5007 48.349 91.3457C48.3034 91.5326 48.2464 91.7422 48.1781 91.9746C48.1143 92.2025 48.0505 92.4167 47.9867 92.6172C47.9274 92.8177 47.8819 92.9727 47.85 93.082L46.8929 95.8164H49.8324Z" fill="#757575"/>
</svg>
