<svg width="21" height="40" viewBox="0 0 21 40" fill="none" xmlns="http://www.w3.org/2000/svg">
<path d="M0.00634539 20.1082C0.0282131 20.3116 0.11822 20.5015 0.261784 20.6476L19.3337 39.7178C19.5019 39.8944 19.7339 39.9961 19.978 39.9999C20.222 40.0037 20.4571 39.9089 20.6305 39.7375C20.8039 39.566 20.9012 39.3318 20.9002 39.0881C20.8993 38.8441 20.8001 38.6108 20.6251 38.4406L2.19096 20.0089L20.6251 1.57716L20.6251 1.57684C20.8001 1.40697 20.8993 1.17371 20.9002 0.929679C20.9012 0.685648 20.8039 0.451763 20.6305 0.280306C20.4572 0.108532 20.222 0.0140901 19.978 0.0178871C19.7339 0.0216903 19.5019 0.12311 19.3337 0.299955L0.260972 19.3702C0.0692311 19.5651 -0.0245738 19.8361 0.00553451 20.108L0.00634539 20.1082Z" fill="#797979"/>
</svg>
